<svg width="128" height="128" viewBox="0 0 128 128" fill="none" xmlns="http://www.w3.org/2000/svg">
  <!-- Large comic burst for VS logo background -->
  <defs>
    <pattern id="halftone" x="0" y="0" width="10" height="10" patternUnits="userSpaceOnUse">
      <circle cx="5" cy="5" r="1.5" fill="#000000" opacity="0.2"/>
    </pattern>
  </defs>

  <!-- Main burst shape -->
  <path d="M64 8L70 40L98 28L80 56L112 64L82 72L96 98L70 84L64 120L58 84L32 98L46 72L16 64L48 56L30 28L58 40L64 8Z"
        fill="url(#blueGradient)" stroke="#1A1A1A" stroke-width="4" stroke-linejoin="round"/>

  <!-- Halftone pattern overlay -->
  <path d="M64 8L70 40L98 28L80 56L112 64L82 72L96 98L70 84L64 120L58 84L32 98L46 72L16 64L48 56L30 28L58 40L64 8Z"
        fill="url(#halftone)" stroke="none"/>

  <!-- Gradient definitions -->
  <defs>
    <radialGradient id="blueGradient" cx="50%" cy="50%" r="50%">
      <stop offset="0%" style="stop-color:#4ECDC4;stop-opacity:1" />
      <stop offset="50%" style="stop-color:#2B7FDB;stop-opacity:1" />
      <stop offset="100%" style="stop-color:#1A5BAD;stop-opacity:1" />
    </radialGradient>
  </defs>
</svg>
